<?xml version="1.0" standalone="no"?>
<!DOCTYPE svg PUBLIC "-//W3C//DTD SVG 20010904//EN"
 "http://www.w3.org/TR/2001/REC-SVG-20010904/DTD/svg10.dtd">
<svg version="1.0" xmlns="http://www.w3.org/2000/svg"
 width="16.000000pt" height="16.000000pt" viewBox="0 0 16.000000 16.000000"
 preserveAspectRatio="xMidYMid meet">
<metadata>
Created by potrace 1.11, written by Peter Selinger 2001-2013
</metadata>
<g transform="translate(0.000000,16.000000) scale(0.003200,-0.003200)"
fill="#000000" stroke="none">
<path d="M3080 4370 c-195 -3 -356 -7 -357 -8 -1 -1 -9 -25 -18 -53 -9 -28
-19 -48 -21 -46 -2 2 3 23 11 47 8 24 13 46 9 49 -3 3 -285 7 -627 9 -499 2
-625 1 -639 -10 -18 -13 -1068 -1830 -1062 -1836 1 -2 234 135 518 305 l515
308 3 250 3 250 2 -247 3 -247 535 307 c294 169 535 309 535 312 0 3 -27 20
-60 38 -33 19 -60 36 -60 39 0 2 30 -12 66 -32 53 -30 68 -35 75 -24 5 9 9 10
9 2 0 -8 788 432 1050 588 9 5 -13 8 -60 6 -41 -1 -235 -4 -430 -7z m-1594
-26 c18 -14 18 -14 -6 -3 -31 14 -36 19 -24 19 6 0 19 -7 30 -16z m84 -50 c0
-2 -13 2 -30 11 -16 9 -30 18 -30 21 0 2 14 -2 30 -11 17 -9 30 -18 30 -21z
m-143 -437 c-1 -84 -3 -12 -3 158 0 171 2 239 3 152 2 -87 2 -227 0 -310z
m213 397 c0 -2 -13 2 -30 11 -16 9 -30 18 -30 21 0 2 14 -2 30 -11 17 -9 30
-18 30 -21z m70 -40 c0 -2 -13 2 -30 11 -16 9 -30 18 -30 21 0 2 14 -2 30 -11
17 -9 30 -18 30 -21z m70 -40 c0 -2 -13 2 -30 11 -16 9 -30 18 -30 21 0 2 14
-2 30 -11 17 -9 30 -18 30 -21z m155 -87 c6 -6 -21 7 -60 28 -38 21 -74 42
-80 48 -5 6 22 -7 60 -28 39 -21 75 -42 80 -48z m689 -11 c-9 -26 -18 -45 -20
-43 -2 2 3 25 12 51 9 26 18 45 20 43 2 -2 -3 -25 -12 -51z m-614 -32 c0 -2
-13 2 -30 11 -16 9 -30 18 -30 21 0 2 14 -2 30 -11 17 -9 30 -18 30 -21z m70
-40 c0 -2 -13 2 -30 11 -16 9 -30 18 -30 21 0 2 14 -2 30 -11 17 -9 30 -18 30
-21z m70 -40 c0 -2 -13 2 -30 11 -16 9 -30 18 -30 21 0 2 14 -2 30 -11 17 -9
30 -18 30 -21z m70 -40 c0 -2 -13 2 -30 11 -16 9 -30 18 -30 21 0 2 14 -2 30
-11 17 -9 30 -18 30 -21z m70 -40 c0 -2 -13 2 -30 11 -16 9 -30 18 -30 21 0 2
14 -2 30 -11 17 -9 30 -18 30 -21z m254 -38 c-9 -26 -18 -45 -20 -43 -2 2 3
25 12 51 9 26 18 45 20 43 2 -2 -3 -25 -12 -51z m-184 -2 c0 -2 -13 2 -30 11
-16 9 -30 18 -30 21 0 2 14 -2 30 -11 17 -9 30 -18 30 -21z"/>
<path d="M3600 3874 c0 -270 -3 -544 -6 -610 l-5 -119 493 -288 c271 -158 512
-298 535 -312 41 -25 27 1 -479 887 -287 502 -525 917 -529 923 -5 5 -9 -211
-9 -481z"/>
<path d="M4134 2187 c-303 -181 -517 -315 -510 -319 7 -5 5 -8 -6 -8 -16 0
-18 -12 -20 -87 l-2 -88 -5 87 -6 86 -532 -301 c-293 -166 -533 -305 -533
-308 0 -3 18 -15 40 -28 22 -12 40 -25 40 -28 0 -3 -21 7 -47 22 -35 21 -52
26 -69 19 -23 -9 -1054 -598 -1051 -600 1 -1 484 -3 1072 -5 l1070 -4 5 400 5
400 3 -395 2 -394 323 559 c281 487 749 1307 744 1304 -1 0 -237 -141 -523
-312z m-461 -334 c-7 -2 -19 -2 -25 0 -7 3 -2 5 12 5 14 0 19 -2 13 -5z m60
-10 c-7 -2 -21 -2 -30 0 -10 3 -4 5 12 5 17 0 24 -2 18 -5z m50 -10 c-7 -2
-19 -2 -25 0 -7 3 -2 5 12 5 14 0 19 -2 13 -5z m92 -13 c27 -7 27 -8 5 -8 -14
0 -38 4 -55 8 -27 7 -27 8 -5 8 14 0 39 -4 55 -8z m68 -17 c-7 -2 -19 -2 -25
0 -7 3 -2 5 12 5 14 0 19 -2 13 -5z m60 -10 c-7 -2 -21 -2 -30 0 -10 3 -4 5
12 5 17 0 24 -2 18 -5z m50 -10 c-7 -2 -19 -2 -25 0 -7 3 -2 5 12 5 14 0 19
-2 13 -5z m60 -10 c-7 -2 -21 -2 -30 0 -10 3 -4 5 12 5 17 0 24 -2 18 -5z m50
-10 c-7 -2 -19 -2 -25 0 -7 3 -2 5 12 5 14 0 19 -2 13 -5z m60 -10 c-7 -2 -21
-2 -30 0 -10 3 -4 5 12 5 17 0 24 -2 18 -5z m-1553 -599 c0 -2 -13 2 -30 11
-16 9 -30 18 -30 21 0 2 14 -2 30 -11 17 -9 30 -18 30 -21z m50 -30 c0 -2 -9
0 -20 6 -11 6 -20 13 -20 16 0 2 9 0 20 -6 11 -6 20 -13 20 -16z m70 -40 c0
-2 -13 2 -30 11 -16 9 -30 18 -30 21 0 2 14 -2 30 -11 17 -9 30 -18 30 -21z
m115 -67 c6 -6 -12 2 -40 18 -27 15 -54 32 -60 38 -5 6 13 -2 40 -18 28 -15
55 -32 60 -38z m75 -43 c0 -2 -13 2 -30 11 -16 9 -30 18 -30 21 0 2 14 -2 30
-11 17 -9 30 -18 30 -21z m50 -30 c0 -2 -9 0 -20 6 -11 6 -20 13 -20 16 0 2 9
0 20 -6 11 -6 20 -13 20 -16z m70 -40 c0 -2 -13 2 -30 11 -16 9 -30 18 -30 21
0 2 14 -2 30 -11 17 -9 30 -18 30 -21z m70 -40 c0 -2 -13 2 -30 11 -16 9 -30
18 -30 21 0 2 14 -2 30 -11 17 -9 30 -18 30 -21z m50 -30 c0 -2 -9 0 -20 6
-11 6 -20 13 -20 16 0 2 9 0 20 -6 11 -6 20 -13 20 -16z m70 -40 c0 -2 -13 2
-30 11 -16 9 -30 18 -30 21 0 2 14 -2 30 -11 17 -9 30 -18 30 -21z m50 -30 c0
-2 -9 0 -20 6 -11 6 -20 13 -20 16 0 2 9 0 20 -6 11 -6 20 -13 20 -16z m70
-40 c0 -2 -13 2 -30 11 -16 9 -30 18 -30 21 0 2 14 -2 30 -11 17 -9 30 -18 30
-21z m70 -40 c0 -2 -13 2 -30 11 -16 9 -30 18 -30 21 0 2 14 -2 30 -11 17 -9
30 -18 30 -21z m50 -30 c0 -2 -9 0 -20 6 -11 6 -20 13 -20 16 0 2 9 0 20 -6
11 -6 20 -13 20 -16z m35 -22 c-3 -3 -11 0 -18 7 -9 10 -8 11 6 5 10 -3 15 -9
12 -12z"/>
<path d="M384 2472 c-16 -10 388 -728 407 -725 8 1 128 27 268 58 140 31 258
54 263 53 6 -2 -112 -31 -261 -63 -149 -33 -271 -63 -271 -67 0 -12 184 -338
190 -337 3 0 79 86 170 190 205 235 253 288 243 268 -4 -8 -97 -116 -205 -240
-109 -123 -198 -228 -198 -234 0 -5 93 -169 207 -364 l208 -354 3 594 c1 327
0 600 -3 606 -3 8 -16 11 -37 8 l-33 -6 35 13 35 13 6 100 5 100 2 -98 2 -99
143 168 c78 91 143 170 145 174 2 5 -242 51 -270 50 -5 0 -9 -26 -10 -57 l-1
-58 -6 60 -6 60 -500 97 c-549 106 -515 101 -531 90z m517 -289 c274 -159 496
-290 494 -292 -3 -3 -988 562 -1004 575 -29 25 91 -41 510 -283z"/>
<path d="M1635 1911 l-210 -36 -3 -604 c-1 -333 0 -602 3 -600 2 3 81 227 175
498 135 389 168 496 159 507 -9 12 -9 13 3 9 12 -5 22 12 43 72 53 154 64 193
52 192 -7 -1 -106 -17 -222 -38z m-90 -104 c6 -6 -12 2 -40 18 -27 15 -54 32
-60 38 -5 6 13 -2 40 -18 28 -15 55 -32 60 -38z m75 -43 c0 -2 -13 2 -30 11
-16 9 -30 18 -30 21 0 2 14 -2 30 -11 17 -9 30 -18 30 -21z m115 -67 c6 -6
-12 2 -40 18 -27 15 -54 32 -60 38 -5 6 13 -2 40 -18 28 -15 55 -32 60 -38z"/>
</g>
</svg>
